<?xml version="1.0" standalone="no"?>
<svg xmlns="http://www.w3.org/2000/svg" width="293.3065190651907" height="68.22651906519066" viewBox="0 0 293.3065190651907 68.22651906519066"><g fill="#000000" color="#000000" transform="translate(0 0) scale(0.6822652)"><svg width="100.0" height="100.0" x="0.0" y="0.0" viewBox="0 0 100 100"><path fill-rule="evenodd" clip-rule="evenodd" fill="currentColor" d="M42.675,2.725c1.517,0,3.034,0,4.55,0c0,1.516,0,3.034,0,4.55  c1.516,0,3.034,0,4.55,0c0-1.517,0-3.034,0-4.55c3.033,0,6.066,0,9.1,0c0,1.516,0,3.034,0,4.55c-1.517,0-3.033,0-4.55,0  c0,1.516,0,3.033,0,4.55c1.517,0,3.033,0,4.55,0c0,1.517,0,3.033,0,4.55c-1.517,0-3.033,0-4.55,0c0,1.517,0,3.034,0,4.55  c-1.517,0-3.034,0-4.55,0c0-3.033,0-6.067,0-9.1c-1.517,0-3.034,0-4.55,0c0,3.033,0,6.067,0,9.1c-1.516,0-3.034,0-4.55,0  c0-1.516,0-3.033,0-4.55c-1.516,0-3.033,0-4.55,0c0-1.517,0-3.033,0-4.55c1.517,0,3.034,0,4.55,0  C42.675,8.792,42.675,5.758,42.675,2.725z"></path><path fill-rule="evenodd" clip-rule="evenodd" fill="currentColor" d="M1.725,2.725c0,10.616,0,21.234,0,31.85c10.616,0,21.234,0,31.85,0  c0-10.616,0-21.234,0-31.85C22.959,2.725,12.341,2.725,1.725,2.725z M29.025,30.025c-7.583,0-15.168,0-22.75,0  c0-7.583,0-15.168,0-22.75c7.582,0,15.167,0,22.75,0C29.025,14.857,29.025,22.442,29.025,30.025z"></path><path fill-rule="evenodd" clip-rule="evenodd" fill="currentColor" d="M65.425,2.725c0,10.616,0,21.234,0,31.85  c10.616,0,21.235,0,31.851,0c0-10.616,0-21.234,0-31.85C86.66,2.725,76.041,2.725,65.425,2.725z M92.725,30.025  c-7.582,0-15.167,0-22.75,0c0-7.583,0-15.168,0-22.75c7.583,0,15.168,0,22.75,0C92.725,14.857,92.725,22.442,92.725,30.025z"></path><path fill-rule="evenodd" clip-rule="evenodd" fill="currentColor" d="M10.825,11.825c4.55,0,9.1,0,13.65,0c0,4.55,0,9.1,0,13.65  c-4.55,0-9.1,0-13.65,0C10.825,20.925,10.825,16.375,10.825,11.825z"></path><path fill-rule="evenodd" clip-rule="evenodd" fill="currentColor" d="M74.525,11.825c4.549,0,9.1,0,13.649,0c0,4.55,0,9.1,0,13.65  c-4.55,0-9.101,0-13.649,0C74.525,20.925,74.525,16.375,74.525,11.825z"></path><path fill-rule="evenodd" clip-rule="evenodd" fill="currentColor" d="M47.225,20.925c1.516,0,3.034,0,4.55,0c0,1.517,0,3.034,0,4.55  c-1.517,0-3.034,0-4.55,0C47.225,23.959,47.225,22.441,47.225,20.925z"></path><path fill-rule="evenodd" clip-rule="evenodd" fill="currentColor" d="M56.325,20.925c1.517,0,3.033,0,4.55,0c0,6.066,0,12.134,0,18.2  c-1.517,0-3.033,0-4.55,0c0,1.517,0,3.034,0,4.55c-3.033,0-6.067,0-9.1,0c0,1.517,0,3.034,0,4.55c1.516,0,3.034,0,4.55,0  c0,3.033,0,6.067,0,9.1c-3.033,0-6.067,0-9.101,0c0-1.517,0-3.034,0-4.55c-4.549,0-9.1,0-13.649,0c0-1.517,0-3.034,0-4.55  c4.549,0,9.1,0,13.649,0c0-1.516,0-3.034,0-4.55c-6.066,0-12.134,0-18.2,0c0,3.033,0,6.067,0,9.101c1.516,0,3.034,0,4.55,0  c0,1.516,0,3.033,0,4.55c3.033,0,6.067,0,9.1,0c0,1.517,0,3.033,0,4.55c-4.55,0-9.101,0-13.65,0c0-1.517,0-3.033,0-4.55  c-1.516,0-3.034,0-4.55,0c0,1.517,0,3.033,0,4.55c-1.516,0-3.033,0-4.55,0c0-3.033,0-6.066,0-9.1c1.517,0,3.034,0,4.55,0  c0-1.517,0-3.034,0-4.55c-3.033,0-6.067,0-9.1,0c0-1.516,0-3.034,0-4.55c-1.517,0-3.034,0-4.55,0c0,1.517,0,3.034,0,4.55  c1.516,0,3.033,0,4.55,0c0,1.516,0,3.034,0,4.55c-3.033,0-6.067,0-9.1,0c0-4.55,0-9.101,0-13.65c4.549,0,9.1,0,13.65,0  c0,1.517,0,3.034,0,4.55c1.517,0,3.034,0,4.55,0c0-1.516,0-3.033,0-4.55c6.066,0,12.134,0,18.2,0c0-3.033,0-6.067,0-9.1  c1.517,0,3.034,0,4.55,0c0,1.516,0,3.033,0,4.55c1.517,0,3.034,0,4.55,0c0,1.517,0,3.033,0,4.55c1.516,0,3.034,0,4.55,0  c0-1.517,0-3.033,0-4.55c1.516,0,3.033,0,4.55,0C56.325,30.025,56.325,25.475,56.325,20.925z"></path><path fill-rule="evenodd" clip-rule="evenodd" fill="currentColor" d="M47.225,30.025c1.516,0,3.034,0,4.55,0c0,1.516,0,3.033,0,4.55  c-1.517,0-3.034,0-4.55,0C47.225,33.059,47.225,31.542,47.225,30.025z"></path><path fill-rule="evenodd" clip-rule="evenodd" fill="currentColor" d="M60.875,39.125c3.033,0,6.067,0,9.1,0c0,1.517,0,3.034,0,4.55  c1.517,0,3.034,0,4.551,0c0,1.517,0,3.034,0,4.55c-3.033,0-6.067,0-9.101,0c0-1.516,0-3.034,0-4.55c-1.517,0-3.033,0-4.55,0  C60.875,42.159,60.875,40.642,60.875,39.125z"></path><path fill-rule="evenodd" clip-rule="evenodd" fill="currentColor" d="M83.625,39.125c1.517,0,3.033,0,4.55,0c0,1.517,0,3.034,0,4.55  c-1.517,0-3.033,0-4.55,0C83.625,42.159,83.625,40.642,83.625,39.125z"></path><path fill-rule="evenodd" clip-rule="evenodd" fill="currentColor" d="M92.725,43.675c1.517,0,3.034,0,4.551,0c0,3.033,0,6.067,0,9.101  c-1.517,0-3.034,0-4.551,0c0,1.516,0,3.033,0,4.55c-1.516,0-3.033,0-4.55,0c0-1.517,0-3.034,0-4.55c-1.517,0-3.033,0-4.55,0  c0-1.517,0-3.034,0-4.55c3.033,0,6.067,0,9.1,0C92.725,46.709,92.725,45.191,92.725,43.675z"></path><path fill-rule="evenodd" clip-rule="evenodd" fill="currentColor" d="M56.325,48.225c1.517,0,3.033,0,4.55,0c0,1.516,0,3.034,0,4.55  c-1.517,0-3.033,0-4.55,0C56.325,51.259,56.325,49.741,56.325,48.225z"></path><path fill-rule="evenodd" clip-rule="evenodd" fill="currentColor" d="M74.525,48.225c1.516,0,3.033,0,4.55,0c0,3.033,0,6.067,0,9.1  c-1.517,0-3.034,0-4.55,0C74.525,54.292,74.525,51.258,74.525,48.225z"></path><path fill-rule="evenodd" clip-rule="evenodd" fill="currentColor" d="M65.425,52.775c1.517,0,3.034,0,4.55,0c0,1.516,0,3.033,0,4.55  c1.517,0,3.034,0,4.551,0c0,1.517,0,3.033,0,4.55c1.516,0,3.033,0,4.55,0c0,4.55,0,9.101,0,13.65c-1.517,0-3.034,0-4.55,0  c0-3.033,0-6.067,0-9.101c-1.517,0-3.034,0-4.551,0c0-1.517,0-3.033,0-4.55c-1.516,0-3.033,0-4.55,0  C65.425,58.842,65.425,55.809,65.425,52.775z"></path><path fill-rule="evenodd" clip-rule="evenodd" fill="currentColor" d="M1.725,57.325c1.516,0,3.034,0,4.55,0c0,1.517,0,3.033,0,4.55  c-1.517,0-3.034,0-4.55,0C1.725,60.358,1.725,58.842,1.725,57.325z"></path><path fill-rule="evenodd" clip-rule="evenodd" fill="currentColor" d="M56.325,57.325c1.517,0,3.033,0,4.55,0c0,1.517,0,3.033,0,4.55  c-1.517,0-3.033,0-4.55,0C56.325,60.358,56.325,58.842,56.325,57.325z"></path><path fill-rule="evenodd" clip-rule="evenodd" fill="currentColor" d="M79.075,57.325c1.517,0,3.033,0,4.55,0c0,1.517,0,3.033,0,4.55  c-1.517,0-3.033,0-4.55,0C79.075,60.358,79.075,58.842,79.075,57.325z"></path><path fill-rule="evenodd" clip-rule="evenodd" fill="currentColor" d="M38.125,61.875c1.517,0,3.034,0,4.55,0c0,3.033,0,6.067,0,9.1  c1.517,0,3.034,0,4.55,0c0,1.517,0,3.034,0,4.551c-1.516,0-3.034,0-4.55,0c0,1.516,0,3.033,0,4.55c-1.516,0-3.033,0-4.55,0  C38.125,74.009,38.125,67.941,38.125,61.875z"></path><path fill-rule="evenodd" clip-rule="evenodd" fill="currentColor" d="M51.775,61.875c1.516,0,3.033,0,4.55,0c0,3.033,0,6.067,0,9.1  c1.517,0,3.033,0,4.55,0c0-3.032,0-6.066,0-9.1c1.517,0,3.033,0,4.55,0c0,1.517,0,3.033,0,4.55c1.517,0,3.034,0,4.55,0  c0,1.517,0,3.034,0,4.55c-1.516,0-3.033,0-4.55,0c0,1.517,0,3.034,0,4.551c3.033,0,6.067,0,9.101,0c0,1.516,0,3.033,0,4.55  c1.516,0,3.033,0,4.55,0c0-1.517,0-3.034,0-4.55c1.517,0,3.033,0,4.55,0c0,3.033,0,6.066,0,9.1c-1.517,0-3.033,0-4.55,0  c0,1.517,0,3.033,0,4.55c1.517,0,3.033,0,4.55,0c0,3.033,0,6.067,0,9.101c-1.517,0-3.033,0-4.55,0c0-1.517,0-3.034,0-4.551  c-3.033,0-6.067,0-9.101,0c0,1.517,0,3.034,0,4.551c-1.516,0-3.033,0-4.55,0c0-3.033,0-6.067,0-9.101c3.033,0,6.067,0,9.101,0  c0-1.517,0-3.033,0-4.55c-3.033,0-6.067,0-9.101,0c0-1.517,0-3.033,0-4.55c-1.517,0-3.033,0-4.55,0c0-1.517,0-3.034,0-4.55  c-1.517,0-3.033,0-4.55,0c0,1.516,0,3.033,0,4.55c-1.517,0-3.034,0-4.55,0c0,4.55,0,9.101,0,13.649c-3.033,0-6.067,0-9.101,0  c0,1.517,0,3.034,0,4.551c-1.516,0-3.033,0-4.55,0c0-4.55,0-9.101,0-13.65c1.517,0,3.034,0,4.55,0c0,1.517,0,3.033,0,4.55  c1.517,0,3.034,0,4.55,0c0-1.517,0-3.033,0-4.55c-1.516,0-3.034,0-4.55,0c0-1.517,0-3.033,0-4.55c1.517,0,3.034,0,4.55,0  c0-1.517,0-3.034,0-4.55c1.516,0,3.034,0,4.55,0c0-1.517,0-3.034,0-4.551c-1.517,0-3.034,0-4.55,0c0-1.516,0-3.033,0-4.55  c1.516,0,3.034,0,4.55,0C51.775,64.908,51.775,63.392,51.775,61.875z"></path><path fill-rule="evenodd" clip-rule="evenodd" fill="currentColor" d="M88.175,61.875c3.033,0,6.067,0,9.101,0c0,6.066,0,12.134,0,18.2  c-1.517,0-3.034,0-4.551,0c0,1.517,0,3.033,0,4.55c-1.516,0-3.033,0-4.55,0c0-3.033,0-6.066,0-9.1c1.517,0,3.034,0,4.55,0  c0-1.517,0-3.034,0-4.551c-3.032,0-6.066,0-9.1,0c0-1.516,0-3.033,0-4.55c1.517,0,3.033,0,4.55,0  C88.175,64.908,88.175,63.392,88.175,61.875z"></path><path fill-rule="evenodd" clip-rule="evenodd" fill="currentColor" d="M1.725,66.425c0,10.616,0,21.235,0,31.851  c10.616,0,21.234,0,31.85,0c0-10.615,0-21.234,0-31.851C22.959,66.425,12.341,66.425,1.725,66.425z M29.025,93.725  c-7.583,0-15.168,0-22.75,0c0-7.582,0-15.167,0-22.75c7.582,0,15.167,0,22.75,0C29.025,78.558,29.025,86.143,29.025,93.725z"></path><path fill-rule="evenodd" clip-rule="evenodd" fill="currentColor" d="M10.825,75.525c4.55,0,9.1,0,13.65,0c0,4.549,0,9.1,0,13.649  c-4.55,0-9.1,0-13.65,0C10.825,84.625,10.825,80.074,10.825,75.525z"></path><path fill-rule="evenodd" clip-rule="evenodd" fill="currentColor" d="M56.325,84.625c1.517,0,3.033,0,4.55,0c0,1.517,0,3.033,0,4.55  c-1.517,0-3.033,0-4.55,0C56.325,87.658,56.325,86.142,56.325,84.625z"></path><path fill-rule="evenodd" clip-rule="evenodd" fill="currentColor" d="M83.625,84.625c1.517,0,3.033,0,4.55,0c0,1.517,0,3.033,0,4.55  c-1.517,0-3.033,0-4.55,0C83.625,87.658,83.625,86.142,83.625,84.625z"></path><path fill-rule="evenodd" clip-rule="evenodd" fill="currentColor" d="M92.725,84.625c1.517,0,3.034,0,4.551,0c0,1.517,0,3.033,0,4.55  c-1.517,0-3.034,0-4.551,0C92.725,87.658,92.725,86.142,92.725,84.625z"></path><path fill-rule="evenodd" clip-rule="evenodd" fill="currentColor" d="M88.175,89.175c1.517,0,3.034,0,4.55,0c0,1.517,0,3.034,0,4.55  c1.517,0,3.034,0,4.551,0c0,1.517,0,3.034,0,4.551c-3.033,0-6.067,0-9.101,0C88.175,95.242,88.175,92.208,88.175,89.175z"></path><path fill-rule="evenodd" clip-rule="evenodd" fill="currentColor" d="M56.325,93.725c1.517,0,3.033,0,4.55,0c0,1.517,0,3.034,0,4.551  c-1.517,0-3.033,0-4.55,0C56.325,96.759,56.325,95.241,56.325,93.725z"></path></svg></g><path fill="#000000" fill-rule="nonzero" d="M16.16 17.68L16.16 17.68L21.32 17.68Q21.32 23.12 18.60 26.04Q15.88 28.96 10.92 28.96L10.92 28.96Q0 28.96 0 16.12L0 16.12L0 13.72Q0 3.60 5.60 1.04L5.60 1.04Q7.80 0 10.92 0L10.92 0Q15.48 0 18.34 2.50Q21.20 5 21.20 9.72L21.20 9.72L16.00 9.72Q15.56 7.36 14.44 6.16Q13.32 4.96 10.92 4.96L10.92 4.96Q8.12 4.96 6.76 6.72L6.76 6.72Q5.80 7.96 5.64 10.96L5.64 10.96Q5.56 11.92 5.56 13.56L5.56 13.56L5.56 16.04Q5.56 20.64 6.84 22.32L6.84 22.32Q8.16 24 10.94 24Q13.72 24 14.78 22.46Q15.84 20.92 16.16 17.68ZM46.92 13.16L46.92 13.16L46.92 15.32Q46.92 22.48 44.22 25.72Q41.52 28.96 35.56 28.96Q29.60 28.96 26.94 25.72Q24.28 22.48 24.28 15.20L24.28 15.20L24.28 13.12Q24.28 6.48 26.98 3.24Q29.68 0 35.54 0Q41.40 0 44.16 3.28Q46.92 6.56 46.92 13.16ZM41.36 15.20L41.36 15.20L41.36 13.72Q41.36 9.88 40.40 7.60L40.40 7.60Q39.28 4.96 35.60 4.96L35.60 4.96Q31.88 4.96 30.76 7.60L30.76 7.60Q29.84 9.76 29.84 13.72L29.84 13.72L29.84 15.20Q29.84 20.36 31.28 22.16L31.28 22.16Q31.84 22.92 32.94 23.46Q34.04 24 35.58 24Q37.12 24 38.20 23.48Q39.28 22.96 39.88 22.20Q40.48 21.44 40.80 20.20L40.80 20.20Q41.36 18.24 41.36 15.20ZM72.84 28.72L72.84 11.72L67.72 22.52Q66.60 24.68 64.94 24.68Q63.28 24.68 62.16 22.40L62.16 22.40L56.96 11.72L56.96 28.72L51.40 28.72L51.40 0.24L56.88 0.24L64.92 16.68L72.92 0.24L78.40 0.24L78.40 28.72L72.84 28.72ZM105.28 28.72L105.28 11.72L100.16 22.52Q99.04 24.68 97.38 24.68Q95.72 24.68 94.60 22.40L94.60 22.40L89.40 11.72L89.40 28.72L83.84 28.72L83.84 0.24L89.32 0.24L97.36 16.68L105.36 0.24L110.84 0.24L110.84 28.72L105.28 28.72ZM135.44 23.76L135.44 28.72L125.36 28.72Q120.56 28.72 118.62 27.06Q116.68 25.40 116.68 21.20L116.68 21.20L116.68 0.24L135.44 0.24L135.44 5.20L122.24 5.20L122.24 11.88L131.48 11.88L131.08 16.84L122.24 16.84L122.24 20.80Q122.24 22.48 123 23.12Q123.76 23.76 125.76 23.76L125.76 23.76L135.44 23.76ZM156.08 17.24L162.44 28.72L156 28.72L150.44 18.16L146.44 18.16L146.44 28.72L140.88 28.72L140.88 6.36Q140.88 3.16 142.36 1.70Q143.84 0.24 147.32 0.24L147.32 0.24L152.04 0.24Q156.28 0.24 158.78 2.82Q161.28 5.40 161.28 9.36L161.28 9.36Q161.28 12.24 159.78 14.34Q158.28 16.44 156.08 17.24L156.08 17.24ZM151.68 13.52Q153.44 13.52 154.58 12.30Q155.72 11.08 155.72 9.26Q155.72 7.44 154.62 6.32Q153.52 5.20 151.68 5.20L151.68 5.20L148.92 5.20Q146.44 5.20 146.44 7.72L146.44 7.72L146.44 13.52L151.68 13.52ZM181.44 17.68L181.44 17.68L186.60 17.68Q186.60 23.12 183.88 26.04Q181.16 28.96 176.20 28.96L176.20 28.96Q165.28 28.96 165.28 16.12L165.28 16.12L165.28 13.72Q165.28 3.60 170.88 1.04L170.88 1.04Q173.08 0 176.20 0L176.20 0Q180.76 0 183.62 2.50Q186.48 5 186.48 9.72L186.48 9.72L181.28 9.72Q180.84 7.36 179.72 6.16Q178.60 4.96 176.20 4.96L176.20 4.96Q173.40 4.96 172.04 6.72L172.04 6.72Q171.08 7.96 170.92 10.96L170.92 10.96Q170.84 11.92 170.84 13.56L170.84 13.56L170.84 16.04Q170.84 20.64 172.12 22.32L172.12 22.32Q173.44 24 176.22 24Q179 24 180.06 22.46Q181.12 20.92 181.44 17.68ZM210.08 23.76L210.08 28.72L200 28.72Q195.20 28.72 193.26 27.06Q191.32 25.40 191.32 21.20L191.32 21.20L191.32 0.24L210.08 0.24L210.08 5.20L196.88 5.20L196.88 11.88L206.12 11.88L205.72 16.84L196.88 16.84L196.88 20.80Q196.88 22.48 197.64 23.12Q198.40 23.76 200.40 23.76L200.40 23.76L210.08 23.76Z" transform="translate(83.227 0) scale(1)"></path><path fill="#000000" fill-rule="nonzero" d="M20.80 0.24L20.80 5.20L13.16 5.20L13.16 28.72L7.60 28.72L7.60 5.20L0 5.20L0 0.24L20.80 0.24ZM30.68 0.24L30.68 28.72L25.12 28.72L25.12 0.24L30.68 0.24ZM51.72 17.68L51.72 17.68L56.88 17.68Q56.88 23.12 54.16 26.04Q51.44 28.96 46.48 28.96L46.48 28.96Q35.56 28.96 35.56 16.12L35.56 16.12L35.56 13.72Q35.56 3.60 41.16 1.04L41.16 1.04Q43.36 0 46.48 0L46.48 0Q51.04 0 53.90 2.50Q56.76 5 56.76 9.72L56.76 9.72L51.56 9.72Q51.12 7.36 50 6.16Q48.88 4.96 46.48 4.96L46.48 4.96Q43.68 4.96 42.32 6.72L42.32 6.72Q41.36 7.96 41.20 10.96L41.20 10.96Q41.12 11.92 41.12 13.56L41.12 13.56L41.12 16.04Q41.12 20.64 42.40 22.32L42.40 22.32Q43.72 24 46.50 24Q49.28 24 50.34 22.46Q51.40 20.92 51.72 17.68ZM83.52 0.24L74.44 13.64L84.24 28.72L77.76 28.72L71.04 17.96L67.16 23.16L67.16 28.72L61.60 28.72L61.60 0.24L67.16 0.24L67.16 16.16L77.92 0.24L83.52 0.24ZM106.96 23.76L106.96 28.72L96.88 28.72Q92.08 28.72 90.14 27.06Q88.20 25.40 88.20 21.20L88.20 21.20L88.20 0.24L106.96 0.24L106.96 5.20L93.76 5.20L93.76 11.88L103 11.88L102.60 16.84L93.76 16.84L93.76 20.80Q93.76 22.48 94.52 23.12Q95.28 23.76 97.28 23.76L97.28 23.76L106.96 23.76ZM130.92 0.24L130.92 5.20L123.28 5.20L123.28 28.72L117.72 28.72L117.72 5.20L110.12 5.20L110.12 0.24L130.92 0.24ZM140.80 0.24L140.80 28.72L135.24 28.72L135.24 0.24L140.80 0.24ZM164.08 0.24L169.64 0.24L169.64 25.84Q169.64 27.16 168.84 28.10Q168.04 29.04 166.96 29.04L166.96 29.04Q164.20 29.04 162.44 25.84L162.44 25.84L152.60 10.44L152.60 28.72L147.04 28.72L147.04 0.24L152.40 0.24L164.08 18.88L164.08 0.24ZM173.64 15.32L173.64 15.32L173.64 11.80Q173.64 6.24 176.56 3.12Q179.48 0 184.64 0Q189.80 0 192.92 3.12L192.92 3.12Q195.12 5.32 195.12 9.72L195.12 9.72L189.92 9.72Q189.92 4.96 184.84 4.96L184.84 4.96Q183.32 4.96 182.26 5.54Q181.20 6.12 180.68 6.88Q180.16 7.64 179.88 9.12Q179.60 10.60 179.56 11.60Q179.52 12.60 179.52 14.28Q179.52 15.96 179.54 16.54Q179.56 17.12 179.66 18.42Q179.76 19.72 179.98 20.28Q180.20 20.84 180.62 21.72Q181.04 22.60 181.68 22.96L181.68 22.96Q183.32 24 185.40 24L185.40 24Q188.88 24 190.32 21.04L190.32 21.04L190.32 19.12L186.88 19.12L186.88 14.48L195.08 14.48L195.08 23.08Q193.84 26 191.16 27.48Q188.48 28.96 185.08 28.96L185.08 28.96Q179.04 28.96 176.34 25.58Q173.64 22.20 173.64 15.32Z" transform="translate(83.227 36.96) scale(1.077)"></path></svg>